P3
# Created by GIMP version 2.10.8 PNM plug-in
8 8
255
69
67
255
69
67
255
66
77
255
54
109
248
43
137
225
25
178
188
105
142
211
240
14
255
69
67
255
69
67
255
57
99
252
47
127
232
30
165
199
15
205
165
209
38
253
255
128
128
69
67
255
61
88
253
46
127
232
35
154
209
19
192
177
150
91
250
255
42
214
255
128
128
66
78
254
50
118
239
39
145
217
25
179
188
104
143
211
255
42
215
255
128
128
255
128
128
54
109
248
43
136
224
30
165
199
14
205
165
239
13
255
255
128
128
255
128
128
255
128
128
46
127
232
35
154
209
14
205
165
209
37
254
255
128
128
255
128
128
255
128
128
255
128
128
39
145
216
20
192
176
149
91
250
255
42
214
255
128
128
255
128
128
255
128
128
255
128
128
25
178
188
105
143
211
240
13
254
255
128
128
255
128
128
255
128
128
255
128
128
255
128
128
