P3
# Created by GIMP version 2.10.8 PNM plug-in
# alsdkj
2 2
255
18
18
17
17
18
17
17
17
18
17
17
17
