P2
4 4
255
100
126
187
169
111
166
169
144
166
176
153
124
176
153
124
221
