P3
4 4
255
66
79
254
52
125
242
12
213
159
111
180
199
57
100
252
34
184
198
112
180
199
158
127
236
34
184
198
93
192
187
144
148
223
151
90
250
92
192
187
144
148
223
150
91
249
229
223
146
