P3
# Created by GIMP version 2.10.8 PNM plug-in
12 8
255
70
66
255
66
77
255
62
90
253
56
103
252
49
140
234
40
170
212
19
213
159
73
201
176
100
188
191
125
169
208
143
150
223
159
127
236
68
71
255
63
86
253
59
96
252
51
128
241
43
161
220
28
194
187
60
205
171
91
192
186
113
179
200
137
157
218
153
134
232
168
106
244
65
81
254
60
93
253
56
103
252
46
151
227
35
182
200
19
212
159
83
197
181
106
183
195
130
164
214
149
142
227
164
116
241
152
91
250
62
89
254
57
100
252
49
140
234
40
170
212
20
205
172
73
201
176
100
188
191
119
174
204
143
150
223
159
126
236
173
94
249
142
90
249
60
96
253
54
114
248
43
161
220
28
194
186
45
209
165
91
193
186
112
179
200
130
164
213
154
134
232
168
106
245
152
91
250
175
149
224
56
104
251
48
140
234
35
182
199
19
212
160
72
201
176
107
184
195
124
169
208
148
143
227
164
116
240
155
91
250
159
123
238
202
188
193
52
127
241
40
170
212
21
204
172
61
204
171
99
188
191
119
175
204
137
157
218
159
126
236
173
94
249
146
90
249
189
170
210
225
218
153
46
151
227
28
194
187
45
209
165
83
197
182
113
179
200
131
163
213
148
143
227
169
106
245
152
91
250
159
123
238
215
203
175
246
244
93
