P2
# Created by GIMP version 2.10.8 PNM plug-in
12 8
255
95
99
106
113
136
156
187
181
173
163
154
144
97
104
109
128
150
173
183
175
169
158
147
136
101
107
113
143
165
187
178
171
161
151
140
124
105
111
136
156
181
181
173
166
154
144
132
121
109
119
150
173
185
176
169
161
147
136
124
161
113
136
164
187
181
171
163
151
140
125
142
192
127
156
181
182
173
167
158
144
132
122
177
216
143
173
185
178
169
160
151
136
124
142
204
239
