P3
# Created by GIMP version 2.10.8 PNM plug-in
42 37
255
192
173
206
192
174
206
192
173
207
192
173
207
192
173
206
192
173
206
192
174
206
192
173
207
192
173
207
192
173
207
192
174
206
192
173
206
192
174
206
192
174
207
192
174
206
192
173
206
192
174
206
192
173
207
192
173
206
192
173
207
192
174
206
192
173
207
192
173
206
192
173
206
192
173
206
192
173
207
192
173
207
192
174
206
192
173
206
192
174
207
192
173
207
192
173
206
192
173
207
192
173
207
192
173
206
192
174
207
192
174
207
192
174
207
192
173
207
192
173
206
192
173
206
192
173
206
185
163
214
185
163
214
185
163
214
186
163
215
185
164
214
185
164
214
185
163
214
185
164
214
185
163
214
185
164
214
185
164
215
185
163
215
185
164
215
185
163
214
185
163
215
185
164
214
185
163
214
185
164
214
185
164
214
185
163
215
185
163
215
185
163
215
185
164
214
185
163
214
185
164
215
185
163
214
185
163
214
185
163
215
186
163
214
185
163
214
185
163
215
185
163
214
185
164
215
185
163
214
185
163
214
185
163
215
186
163
214
185
164
214
185
163
214
185
163
214
185
163
214
185
163
215
179
154
221
178
155
221
179
154
220
179
154
221
179
154
220
179
154
221
179
154
221
179
154
220
179
154
220
179
154
220
179
154
221
179
154
221
179
154
221
179
154
221
179
154
220
178
154
221
179
154
221
178
155
220
179
154
221
178
154
221
179
154
221
179
154
221
179
155
221
179
154
221
179
154
221
179
155
220
179
154
221
179
155
221
179
154
220
178
154
221
179
154
220
179
155
221
179
154
221
179
155
221
179
154
221
179
155
220
179
154
221
179
154
220
179
154
221
179
154
220
179
154
221
179
154
221
172
145
227
172
145
226
172
144
227
172
144
227
172
144
227
172
144
227
172
145
227
172
144
227
173
144
227
172
145
227
172
145
227
172
144
227
173
144
227
172
144
226
172
145
227
172
144
227
173
144
227
173
144
227
173
145
227
172
144
227
172
144
227
172
144
227
172
145
227
172
145
227
172
144
227
172
144
227
172
145
226
172
145
227
172
144
227
172
144
227
172
144
227
173
144
227
172
144
227
172
144
226
172
144
227
172
144
227
172
145
227
172
144
227
172
144
227
172
145
227
173
145
227
172
144
227
166
134
233
165
133
233
165
134
233
165
133
233
166
133
233
165
133
233
166
133
233
165
133
233
166
133
233
165
133
233
166
133
233
165
133
233
166
133
233
165
134
232
166
134
233
165
134
233
166
134
233
165
133
233
166
133
233
166
134
233
165
133
233
165
133
233
165
134
233
165
133
233
166
133
233
165
133
233
17
17
17
17
17
17
17
17
17
165
133
233
165
134
233
166
134
233
166
133
233
165
134
233
165
133
233
166
133
233
165
133
233
165
134
233
165
133
233
165
133
233
165
133
233
165
133
233
157
121
239
157
121
239
158
121
238
158
122
239
158
121
238
158
121
239
157
121
238
158
121
238
158
121
238
17
17
17
17
17
17
17
17
17
158
121
239
158
121
238
158
121
239
158
121
239
158
121
239
158
121
239
158
121
239
158
121
238
158
121
238
158
121
238
158
122
239
158
121
239
158
121
238
17
17
17
17
17
17
17
17
17
17
17
17
17
17
17
158
121
239
158
121
238
158
121
239
158
121
239
158
121
239
158
121
239
158
121
238
158
121
239
158
121
239
158
122
239
158
121
239
158
121
238
151
108
244
151
107
244
150
107
244
150
107
244
150
107
244
150
107
244
150
107
244
151
107
244
150
107
244
17
17
17
17
17
17
17
17
17
17
17
17
17
17
17
150
107
244
150
107
244
150
108
245
150
107
244
150
107
244
150
107
245
151
107
244
150
107
245
150
107
244
150
107
244
150
108
244
17
17
17
17
17
17
17
17
17
17
17
17
17
17
17
150
107
244
150
107
244
151
107
244
150
108
244
150
107
244
150
108
244
150
107
244
150
107
245
150
107
245
150
107
244
150
107
244
150
107
244
142
90
250
142
91
250
141
91
250
142
90
250
142
90
249
142
91
249
142
91
250
142
90
249
142
90
250
17
17
17
17
17
17
17
17
17
17
17
17
17
17
17
142
90
250
142
91
249
142
90
249
142
90
250
142
90
250
141
90
250
142
90
250
141
91
250
142
91
250
142
91
250
142
90
250
17
17
17
17
17
17
17
17
17
17
17
17
17
17
17
142
90
250
141
91
250
142
91
249
142
90
250
142
90
250
141
90
250
142
91
250
142
91
250
142
90
250
142
90
250
142
91
250
142
90
249
148
91
249
149
90
250
149
90
250
148
90
250
149
91
250
149
90
250
149
91
249
149
90
250
149
90
250
17
17
17
17
17
17
17
17
17
17
17
17
17
17
17
149
91
250
149
90
250
149
90
250
148
90
249
148
90
250
149
90
250
149
90
250
149
90
249
149
90
249
149
91
250
149
90
250
17
17
17
17
17
17
17
17
17
17
17
17
17
17
17
149
90
250
148
91
250
149
90
249
148
91
250
149
90
250
149
91
250
149
91
250
149
91
250
149
90
249
149
91
250
149
90
250
149
90
250
156
91
250
156
90
250
156
90
250
156
90
249
156
91
250
155
91
249
156
90
250
156
91
250
155
91
250
17
17
17
17
17
17
17
17
17
17
17
17
17
17
17
155
90
249
155
91
250
155
90
250
156
91
249
155
90
250
155
91
250
155
91
250
155
91
250
156
90
250
155
91
250
155
91
250
156
90
249
156
90
250
17
17
17
17
17
17
17
17
17
155
91
249
155
91
250
155
91
250
155
90
250
156
91
249
155
91
250
156
91
250
155
91
250
156
90
250
155
91
250
155
90
250
155
91
250
162
91
250
162
91
250
161
91
250
162
91
250
162
91
249
162
91
250
161
91
249
162
91
250
162
90
250
162
91
250
162
91
250
162
91
250
162
90
249
162
91
250
162
91
249
162
91
250
162
90
250
162
91
250
161
91
250
162
90
250
162
91
249
162
91
249
162
91
249
161
91
249
161
90
250
162
91
249
162
91
249
161
91
250
162
91
250
162
91
250
162
91
250
162
91
250
162
90
250
162
91
249
162
91
250
161
90
250
162
90
250
162
90
250
162
91
250
162
90
250
162
91
250
162
91
250
168
91
250
168
91
250
168
91
249
167
91
250
168
91
249
168
90
250
168
91
250
168
91
250
168
91
250
168
91
250
168
91
250
168
91
250
168
91
250
168
91
249
168
91
249
168
91
250
168
91
250
168
90
250
168
91
250
168
91
250
168
91
250
168
91
249
168
91
250
168
91
250
168
91
250
168
91
250
168
91
250
168
90
250
168
91
249
168
91
250
168
91
250
168
91
249
168
91
249
168
91
249
168
91
250
168
91
249
168
91
250
168
91
249
167
91
250
167
91
250
168
91
250
168
91
250
174
91
249
174
91
249
174
91
250
174
91
250
174
92
249
173
91
250
174
91
250
174
91
250
174
91
250
174
91
250
174
91
250
174
91
250
174
91
249
173
92
250
174
91
249
174
91
250
174
91
250
174
91
249
174
91
250
174
91
249
174
91
250
174
91
250
174
91
250
174
91
250
174
91
249
174
91
250
174
91
250
174
91
250
174
91
250
174
91
250
174
91
250
174
92
250
174
91
250
173
91
250
173
91
249
173
91
250
173
91
250
174
91
250
173
91
250
174
91
250
174
91
250
174
92
249
172
98
248
172
97
248
172
98
248
172
97
248
172
97
248
172
98
248
172
97
248
171
98
248
172
98
247
172
97
247
172
98
248
172
98
248
172
98
247
172
97
248
172
98
248
172
97
248
172
97
248
172
98
247
17
17
17
172
98
248
172
98
248
172
97
248
172
97
248
172
97
248
172
97
248
172
97
248
172
97
247
172
98
248
172
98
248
172
97
248
172
98
248
172
97
248
172
98
248
171
97
248
172
97
248
172
98
248
172
97
247
172
98
248
172
97
248
172
97
248
172
97
247
172
98
248
169
103
246
170
103
246
170
103
245
170
103
246
170
104
246
170
104
246
169
103
246
169
104
246
170
103
246
170
103
246
170
103
246
169
103
246
169
103
246
169
103
245
170
103
246
169
103
246
170
104
246
170
103
246
17
17
17
170
103
246
169
104
246
170
103
245
170
103
245
169
103
246
169
103
246
169
104
246
169
103
246
170
103
246
170
103
246
170
103
246
170
104
246
169
103
246
170
103
246
169
104
246
170
103
246
169
103
245
169
103
246
169
103
246
170
103
246
169
104
246
170
103
246
170
103
245
168
109
244
168
108
243
167
108
244
167
109
244
167
109
244
167
109
243
168
109
244
167
109
244
167
108
243
167
108
244
167
108
244
168
109
244
167
109
244
168
109
244
168
109
244
168
108
244
167
109
243
17
17
17
17
17
17
167
108
244
168
109
243
167
109
244
168
109
243
167
109
243
168
108
243
167
109
244
167
109
244
167
109
243
167
109
244
167
109
243
168
109
244
167
108
244
167
109
243
167
109
243
167
109
244
167
109
243
167
109
244
167
109
244
167
109
244
168
109
243
167
109
244
167
109
244
165
114
242
165
115
242
164
114
242
165
114
242
165
114
242
165
114
242
165
114
241
165
114
242
165
114
241
165
114
242
165
114
242
165
114
242
165
114
242
165
114
242
165
114
241
165
114
241
165
114
242
17
17
17
165
114
242
165
114
241
165
114
242
165
114
242
165
114
241
165
114
242
165
114
241
165
114
241
165
114
242
165
114
242
165
114
241
165
114
242
165
114
242
165
114
242
165
114
241
165
114
242
165
114
242
165
114
242
165
114
242
165
114
241
165
114
242
165
114
241
165
114
242
165
114
242
162
119
240
162
119
239
163
119
240
162
119
240
163
119
239
17
17
17
163
119
239
163
119
240
163
119
240
162
119
239
163
119
240
162
119
240
162
119
240
163
119
239
163
119
239
162
119
240
162
119
239
17
17
17
163
119
240
163
119
240
163
119
240
163
119
240
162
119
239
163
119
239
163
119
239
162
119
240
163
119
239
162
119
240
163
119
239
162
119
239
162
119
239
163
119
240
163
119
240
163
119
240
162
119
240
163
119
239
163
119
240
163
119
239
162
119
240
162
118
239
162
119
240
163
119
240
161
123
238
160
123
238
160
124
237
160
124
238
160
124
237
17
17
17
160
124
238
160
124
237
160
124
237
160
124
238
160
123
238
160
123
237
160
124
237
160
124
238
160
123
238
161
123
237
17
17
17
17
17
17
17
17
17
17
17
17
17
17
17
17
17
17
160
124
237
160
124
237
160
124
237
160
124
238
160
124
237
160
124
237
160
124
237
160
123
238
160
124
237
161
123
238
160
123
237
161
124
237
160
124
237
160
124
238
160
124
237
160
124
238
160
124
238
160
124
237
160
123
238
160
124
238
158
128
236
157
129
235
158
128
235
157
128
235
157
128
235
17
17
17
157
129
236
158
128
235
158
128
235
158
128
235
157
128
235
157
128
235
158
128
235
157
129
235
157
128
235
158
129
236
17
17
17
17
17
17
158
128
235
158
128
235
158
128
235
158
128
235
158
128
235
158
128
235
158
128
235
158
128
235
157
128
235
158
128
235
158
128
235
158
128
235
157
128
235
157
128
235
157
128
235
17
17
17
17
17
17
158
129
236
157
128
235
157
128
235
158
129
235
157
128
235
157
128
235
158
129
235
156
132
233
155
133
233
155
132
233
155
133
233
155
132
233
155
133
233
17
17
17
155
133
233
155
132
233
155
133
233
155
133
233
155
132
233
155
132
234
155
132
233
155
132
233
155
133
233
155
132
233
155
133
233
155
133
233
155
133
233
155
132
233
155
132
233
155
132
233
155
132
233
155
132
233
155
132
233
155
132
233
155
132
233
155
132
233
155
133
233
156
132
233
155
132
233
17
17
17
17
17
17
155
132
233
155
133
233
156
133
233
155
133
233
155
132
233
155
132
233
155
133
233
155
132
234
152
136
231
153
137
231
153
137
230
152
137
231
152
136
231
152
137
231
17
17
17
17
17
17
153
137
230
152
136
231
152
136
231
152
137
231
152
137
231
153
136
230
152
137
230
152
136
230
152
136
231
153
136
230
153
137
231
152
137
230
153
137
231
152
136
231
152
137
231
153
136
231
153
136
231
153
137
231
152
137
231
153
136
231
153
137
231
153
137
231
153
137
231
17
17
17
17
17
17
152
136
231
152
136
231
153
136
231
152
136
231
152
136
231
152
136
231
153
137
231
153
137
231
152
136
231
146
146
226
146
145
226
147
146
226
147
146
226
146
145
226
146
145
226
146
146
226
17
17
17
146
146
226
146
145
225
146
146
225
146
145
226
147
145
226
146
145
225
146
146
226
146
146
226
146
146
226
146
145
226
146
145
226
146
146
226
146
145
225
146
146
226
147
146
226
146
146
225
147
145
225
146
145
226
147
145
225
147
146
226
147
146
225
146
146
225
17
17
17
17
17
17
147
146
226
146
145
226
147
145
226
146
146
226
146
145
226
147
145
225
147
146
226
146
145
225
146
145
226
146
145
225
134
160
216
135
160
216
134
160
216
134
160
216
134
160
216
134
160
216
134
160
216
134
160
216
17
17
17
134
159
216
134
160
215
134
160
216
134
160
216
134
159
216
135
160
216
135
160
216
134
159
216
135
159
216
134
160
216
134
160
216
134
160
216
134
160
216
134
160
216
134
160
216
134
160
216
134
160
216
134
159
216
134
160
216
17
17
17
17
17
17
134
160
216
134
160
216
134
160
216
135
160
216
134
160
216
134
160
216
134
160
215
134
160
216
134
160
215
134
160
216
134
160
215
134
160
216
121
173
206
121
173
205
121
173
206
120
173
205
120
173
205
120
173
206
121
173
206
120
173
205
121
173
206
17
17
17
17
17
17
17
17
17
17
17
17
121
173
205
121
173
205
121
173
206
121
173
206
120
173
206
120
173
205
120
173
206
121
173
205
121
173
205
17
17
17
17
17
17
17
17
17
17
17
17
17
17
17
17
17
17
121
173
205
121
173
206
121
172
205
121
173
206
120
172
205
121
173
206
121
173
206
121
172
206
121
173
206
120
173
206
120
173
205
121
173
205
121
173
206
120
173
206
105
185
195
105
185
194
105
184
194
105
185
195
105
185
194
105
185
194
104
184
195
105
185
195
105
184
195
104
185
195
105
185
194
104
185
195
17
17
17
17
17
17
17
17
17
17
17
17
17
17
17
17
17
17
17
17
17
17
17
17
17
17
17
17
17
17
105
185
194
105
185
194
105
184
195
105
185
195
105
185
194
105
185
195
105
184
195
105
185
195
105
184
195
105
185
195
105
185
195
105
184
194
105
185
195
104
185
195
105
184
194
105
185
195
105
184
195
105
185
195
105
184
195
105
185
194
85
196
183
85
195
182
85
196
182
85
196
183
86
196
182
85
195
182
86
195
182
85
195
183
86
196
183
85
195
182
86
195
183
85
196
183
85
195
182
85
195
182
85
196
182
85
195
183
86
195
183
85
195
183
85
195
183
85
195
182
85
196
182
86
195
183
85
195
183
85
195
182
85
196
182
85
195
182
85
196
182
85
196
183
85
196
183
86
196
182
85
196
182
85
196
182
85
196
182
85
195
182
85
195
183
85
196
183
86
196
183
85
195
183
85
196
182
86
195
183
85
195
183
85
196
183
58
206
170
58
205
169
58
206
169
58
205
170
57
206
169
57
205
170
58
206
169
57
206
170
58
206
169
58
205
169
57
206
170
58
206
170
58
206
170
57
205
169
58
206
170
58
205
169
57
206
169
58
206
170
57
205
169
58
205
170
58
205
169
57
206
170
58
206
169
58
206
170
58
206
170
58
206
170
57
206
170
58
206
170
57
206
170
58
206
169
57
205
170
57
206
169
58
206
170
58
206
169
58
205
170
58
206
170
57
206
169
58
206
169
57
205
169
58
205
170
57
206
169
58
206
169
14
211
162
14
210
162
14
211
162
14
211
162
14
211
162
14
211
162
14
211
162
14
210
163
13
211
163
14
211
162
14
210
162
14
211
162
14
211
162
13
211
163
13
211
162
14
211
162
14
211
162
13
211
162
14
211
163
14
211
162
14
211
162
14
211
162
14
210
163
14
211
163
14
210
162
14
211
162
14
211
162
13
210
162
14
211
162
14
211
162
14
211
163
14
211
162
14
211
162
13
211
163
14
211
162
14
211
163
14
211
163
14
211
162
14
211
162
14
211
162
13
211
162
14
211
162
24
200
178
24
201
178
24
201
177
23
201
178
24
200
178
24
201
178
23
201
178
24
200
178
24
201
178
23
201
178
24
200
178
24
201
178
24
200
177
24
200
178
24
201
177
24
200
178
23
200
178
24
200
178
24
201
177
24
201
178
24
200
178
24
201
178
24
201
178
24
201
178
24
200
178
23
200
178
24
200
178
24
200
178
24
200
178
24
201
178
24
200
178
24
200
178
24
201
177
23
201
178
24
201
178
24
201
178
24
200
177
24
200
178
24
200
178
24
200
178
23
200
178
24
201
178
31
189
192
31
190
192
31
190
192
31
189
192
31
190
192
31
190
192
31
190
192
31
190
192
31
190
192
31
189
192
31
190
192
31
190
192
31
190
192
31
190
192
31
190
192
31
190
192
31
190
192
31
189
192
31
190
192
31
190
192
31
190
192
31
189
192
31
189
192
31
190
192
31
189
192
31
190
192
31
190
192
31
189
192
31
190
192
31
190
192
31
190
192
31
189
192
31
190
192
31
190
192
31
190
192
31
189
192
31
190
192
31
190
192
31
189
192
31
190
192
31
190
192
31
189
192
37
178
205
37
178
205
37
178
205
37
178
205
37
178
204
36
178
205
37
178
205
37
178
205
37
177
205
37
177
205
37
177
205
37
177
205
37
178
205
37
178
204
37
178
205
36
177
205
36
177
204
37
178
204
37
178
204
37
178
205
37
178
205
37
177
205
37
178
204
37
177
205
37
178
205
36
178
205
37
178
205
37
178
205
37
177
204
36
178
205
37
178
204
37
178
205
37
178
205
37
178
205
37
178
205
37
177
204
37
177
204
37
178
205
37
178
205
37
178
205
37
177
205
37
178
204
41
166
215
42
166
215
41
166
215
41
166
215
41
166
215
41
167
215
41
167
215
41
166
215
41
167
215
42
167
215
42
166
215
41
167
215
41
167
215
42
166
215
41
166
215
41
166
215
41
167
215
41
167
216
41
167
215
41
166
215
42
167
215
42
166
216
41
166
215
41
167
215
42
166
215
41
166
215
41
166
215
41
167
215
41
166
215
41
166
215
41
167
215
41
166
215
41
167
215
41
166
215
41
166
215
41
166
215
41
166
215
41
166
215
42
166
215
41
167
215
41
166
216
42
166
215
44
157
223
44
156
222
44
157
223
44
157
223
45
157
223
44
157
223
45
156
223
44
157
223
44
157
223
44
156
223
45
156
222
44
157
223
45
156
223
45
157
223
45
157
223
44
157
223
45
156
223
44
157
223
45
157
223
44
157
223
45
157
223
45
157
223
44
156
223
44
157
223
44
157
223
44
157
223
45
156
223
44
157
223
44
157
222
44
157
223
44
157
222
44
157
223
44
156
222
44
157
223
44
157
223
45
157
222
44
157
223
44
157
223
44
156
223
44
157
223
44
157
223
44
157
223
48
147
230
48
146
230
47
146
230
48
146
230
47
146
230
48
146
231
47
146
230
47
146
230
47
146
230
47
147
230
47
146
230
47
147
230
47
147
230
47
146
230
47
146
230
48
147
230
47
146
230
47
147
230
47
146
231
47
147
230
47
147
230
48
146
230
48
146
230
47
146
231
47
146
230
48
146
230
48
146
230
48
146
230
48
146
230
47
147
230
47
147
230
48
146
230
47
146
230
48
147
230
47
147
231
48
146
230
47
146
230
47
147
230
48
147
230
47
146
231
48
146
231
47
146
230
50
135
237
50
135
237
50
134
238
50
135
238
50
135
238
50
135
237
50
135
237
50
135
237
50
135
237
50
135
237
50
135
238
50
135
238
50
135
237
50
135
237
50
135
237
50
134
237
50
135
237
50
134
237
50
134
237
50
134
237
51
135
238
50
135
237
50
135
237
50
135
237
50
135
238
50
135
238
50
135
237
50
135
237
50
134
237
50
135
237
50
135
237
50
134
238
50
135
238
50
135
238
51
134
237
50
134
237
51
135
237
50
135
237
50
135
237
50
135
237
50
135
237
50
135
237
53
122
244
53
122
244
52
122
244
52
122
245
53
122
244
53
122
244
52
121
245
53
121
244
52
122
244
52
122
244
52
122
244
53
121
244
52
122
244
53
122
244
53
122
244
53
122
244
53
122
244
53
122
244
53
121
244
53
122
244
52
122
245
52
122
244
53
121
244
53
122
245
53
122
244
52
122
244
53
122
244
53
122
244
53
122
245
53
122
244
53
122
245
52
122
245
52
121
245
53
122
245
53
122
244
53
122
244
53
122
244
53
122
244
52
121
244
53
122
244
52
122
245
52
122
245
